<svg width="24" height="31" viewBox="0 0 24 31" fill="none" xmlns="http://www.w3.org/2000/svg">
<path fill-rule="evenodd" clip-rule="evenodd" d="M5.15164 18.8484C4.92667 18.6234 4.80029 18.3182 4.80029 18C4.80029 17.6818 4.92667 17.3766 5.15164 17.1516L11.1516 11.1516C11.3767 10.9266 11.6818 10.8003 12 10.8003C12.3182 10.8003 12.6234 10.9266 12.8484 11.1516L18.8484 17.1516C19.067 17.3779 19.188 17.681 19.1852 17.9957C19.1825 18.3103 19.0563 18.6113 18.8338 18.8338C18.6113 19.0563 18.3104 19.1825 17.9957 19.1852C17.6811 19.1879 17.378 19.067 17.1516 18.8484L12 13.6968L6.84844 18.8484C6.6234 19.0734 6.31823 19.1997 6.00004 19.1997C5.68184 19.1997 5.37667 19.0734 5.15164 18.8484V18.8484ZM5.15164 11.6484C4.92667 11.4234 4.80029 11.1182 4.80029 10.8C4.80029 10.4818 4.92667 10.1766 5.15164 9.9516L11.1516 3.9516C11.3767 3.72664 11.6818 3.60026 12 3.60026C12.3182 3.60026 12.6234 3.72664 12.8484 3.9516L18.8484 9.9516C19.067 10.1779 19.188 10.481 19.1852 10.7957C19.1825 11.1103 19.0563 11.4113 18.8338 11.6338C18.6113 11.8563 18.3104 11.9825 17.9957 11.9852C17.6811 11.9879 17.378 11.867 17.1516 11.6484L12 6.4968L6.84844 11.6484C6.6234 11.8734 6.31823 11.9997 6.00004 11.9997C5.68184 11.9997 5.37667 11.8734 5.15164 11.6484V11.6484Z" fill="black"/>
<path fill-rule="evenodd" clip-rule="evenodd" d="M5.15164 25.8484C4.92667 25.6234 4.80029 25.3182 4.80029 25C4.80029 24.6818 4.92667 24.3766 5.15164 24.1516L11.1516 18.1516C11.3767 17.9266 11.6818 17.8003 12 17.8003C12.3182 17.8003 12.6234 17.9266 12.8484 18.1516L18.8484 24.1516C19.067 24.3779 19.188 24.681 19.1852 24.9957C19.1825 25.3103 19.0563 25.6113 18.8338 25.8338C18.6113 26.0563 18.3104 26.1825 17.9957 26.1852C17.6811 26.1879 17.378 26.067 17.1516 25.8484L12 20.6968L6.84844 25.8484C6.6234 26.0734 6.31823 26.1997 6.00004 26.1997C5.68184 26.1997 5.37667 26.0734 5.15164 25.8484V25.8484ZM5.15164 18.6484C4.92667 18.4234 4.80029 18.1182 4.80029 17.8C4.80029 17.4818 4.92667 17.1766 5.15164 16.9516L11.1516 10.9516C11.3767 10.7266 11.6818 10.6003 12 10.6003C12.3182 10.6003 12.6234 10.7266 12.8484 10.9516L18.8484 16.9516C19.067 17.1779 19.188 17.481 19.1852 17.7957C19.1825 18.1103 19.0563 18.4113 18.8338 18.6338C18.6113 18.8563 18.3104 18.9825 17.9957 18.9852C17.6811 18.9879 17.378 18.867 17.1516 18.6484L12 13.4968L6.84844 18.6484C6.6234 18.8734 6.31823 18.9997 6.00004 18.9997C5.68184 18.9997 5.37667 18.8734 5.15164 18.6484V18.6484Z" fill="black"/>
</svg>
